<mxfile host="app.diagrams.net" agent="Mozilla/5.0 (Windows NT 10.0; Win64; x64; rv:137.0) Gecko/20100101 Firefox/137.0" version="26.0.16" pages="2">
  <diagram name="PÃ¡gina-1" id="J5Bvu_2-2_Yfp0qXFBn4">
    <mxGraphModel dx="1674" dy="746" grid="1" gridSize="10" guides="1" tooltips="1" connect="1" arrows="1" fold="1" page="1" pageScale="1" pageWidth="827" pageHeight="1169" math="0" shadow="0">
      <root>
        <mxCell id="0" />
        <mxCell id="1" parent="0" />
        <mxCell id="fEHornG4ekqKrcdhMLwt-8" style="rounded=0;orthogonalLoop=1;jettySize=auto;html=1;endArrow=none;endFill=0;" parent="1" source="fEHornG4ekqKrcdhMLwt-12" target="fEHornG4ekqKrcdhMLwt-33" edge="1">
          <mxGeometry relative="1" as="geometry" />
        </mxCell>
        <mxCell id="fEHornG4ekqKrcdhMLwt-9" style="rounded=0;orthogonalLoop=1;jettySize=auto;html=1;endArrow=none;endFill=0;" parent="1" source="fEHornG4ekqKrcdhMLwt-12" target="fEHornG4ekqKrcdhMLwt-30" edge="1">
          <mxGeometry relative="1" as="geometry" />
        </mxCell>
        <mxCell id="fEHornG4ekqKrcdhMLwt-11" style="rounded=0;orthogonalLoop=1;jettySize=auto;html=1;endArrow=none;endFill=0;" parent="1" source="fEHornG4ekqKrcdhMLwt-12" target="fEHornG4ekqKrcdhMLwt-27" edge="1">
          <mxGeometry relative="1" as="geometry" />
        </mxCell>
        <mxCell id="fEHornG4ekqKrcdhMLwt-12" value="TEAMS" style="whiteSpace=wrap;html=1;align=center;" parent="1" vertex="1">
          <mxGeometry x="351" y="260" width="100" height="40" as="geometry" />
        </mxCell>
        <mxCell id="fEHornG4ekqKrcdhMLwt-13" value="N" style="rounded=0;orthogonalLoop=1;jettySize=auto;html=1;endArrow=none;endFill=0;" parent="1" source="fEHornG4ekqKrcdhMLwt-19" target="fEHornG4ekqKrcdhMLwt-26" edge="1">
          <mxGeometry x="0.8182" y="-10" relative="1" as="geometry">
            <mxPoint as="offset" />
          </mxGeometry>
        </mxCell>
        <mxCell id="fEHornG4ekqKrcdhMLwt-14" value="1" style="edgeLabel;html=1;align=center;verticalAlign=middle;resizable=0;points=[];" parent="fEHornG4ekqKrcdhMLwt-13" vertex="1" connectable="0">
          <mxGeometry x="-0.7273" y="-1" relative="1" as="geometry">
            <mxPoint x="-9" y="-5" as="offset" />
          </mxGeometry>
        </mxCell>
        <mxCell id="fEHornG4ekqKrcdhMLwt-15" value="(N 1 N)" style="edgeLabel;html=1;align=center;verticalAlign=middle;resizable=0;points=[];" parent="fEHornG4ekqKrcdhMLwt-13" vertex="1" connectable="0">
          <mxGeometry x="0.6182" y="-2" relative="1" as="geometry">
            <mxPoint x="42" y="21" as="offset" />
          </mxGeometry>
        </mxCell>
        <mxCell id="fEHornG4ekqKrcdhMLwt-16" style="rounded=0;orthogonalLoop=1;jettySize=auto;html=1;endArrow=none;endFill=0;" parent="1" source="fEHornG4ekqKrcdhMLwt-19" target="fEHornG4ekqKrcdhMLwt-36" edge="1">
          <mxGeometry relative="1" as="geometry" />
        </mxCell>
        <mxCell id="fEHornG4ekqKrcdhMLwt-17" style="rounded=0;orthogonalLoop=1;jettySize=auto;html=1;endArrow=none;endFill=0;" parent="1" source="fEHornG4ekqKrcdhMLwt-19" target="fEHornG4ekqKrcdhMLwt-37" edge="1">
          <mxGeometry relative="1" as="geometry" />
        </mxCell>
        <mxCell id="fEHornG4ekqKrcdhMLwt-18" style="rounded=0;orthogonalLoop=1;jettySize=auto;html=1;endArrow=none;endFill=0;" parent="1" source="fEHornG4ekqKrcdhMLwt-19" target="fEHornG4ekqKrcdhMLwt-28" edge="1">
          <mxGeometry relative="1" as="geometry" />
        </mxCell>
        <mxCell id="fEHornG4ekqKrcdhMLwt-19" value="DRIVERS" style="whiteSpace=wrap;html=1;align=center;" parent="1" vertex="1">
          <mxGeometry x="190" y="100" width="100" height="40" as="geometry" />
        </mxCell>
        <mxCell id="fEHornG4ekqKrcdhMLwt-20" style="rounded=0;orthogonalLoop=1;jettySize=auto;html=1;endArrow=none;endFill=0;" parent="1" source="fEHornG4ekqKrcdhMLwt-25" target="fEHornG4ekqKrcdhMLwt-38" edge="1">
          <mxGeometry relative="1" as="geometry" />
        </mxCell>
        <mxCell id="fEHornG4ekqKrcdhMLwt-21" style="rounded=0;orthogonalLoop=1;jettySize=auto;html=1;endArrow=none;endFill=0;" parent="1" source="fEHornG4ekqKrcdhMLwt-25" target="fEHornG4ekqKrcdhMLwt-35" edge="1">
          <mxGeometry relative="1" as="geometry" />
        </mxCell>
        <mxCell id="fEHornG4ekqKrcdhMLwt-22" style="rounded=0;orthogonalLoop=1;jettySize=auto;html=1;endArrow=none;endFill=0;" parent="1" source="fEHornG4ekqKrcdhMLwt-25" target="fEHornG4ekqKrcdhMLwt-34" edge="1">
          <mxGeometry relative="1" as="geometry" />
        </mxCell>
        <mxCell id="fEHornG4ekqKrcdhMLwt-23" value="N" style="rounded=0;orthogonalLoop=1;jettySize=auto;html=1;endArrow=none;endFill=0;" parent="1" source="fEHornG4ekqKrcdhMLwt-25" target="fEHornG4ekqKrcdhMLwt-26" edge="1">
          <mxGeometry x="0.8182" y="10" relative="1" as="geometry">
            <mxPoint as="offset" />
          </mxGeometry>
        </mxCell>
        <mxCell id="fEHornG4ekqKrcdhMLwt-24" value="&lt;div&gt;1&lt;/div&gt;" style="edgeLabel;html=1;align=center;verticalAlign=middle;resizable=0;points=[];" parent="fEHornG4ekqKrcdhMLwt-23" vertex="1" connectable="0">
          <mxGeometry x="-0.6545" y="1" relative="1" as="geometry">
            <mxPoint x="-9" y="9" as="offset" />
          </mxGeometry>
        </mxCell>
        <mxCell id="fEHornG4ekqKrcdhMLwt-25" value="RACES" style="whiteSpace=wrap;html=1;align=center;" parent="1" vertex="1">
          <mxGeometry x="190" y="420" width="100" height="40" as="geometry" />
        </mxCell>
        <mxCell id="fEHornG4ekqKrcdhMLwt-26" value="&lt;span class=&quot;tag_lemma&quot;&gt;&lt;a rel=&quot;nofollow&quot; class=&quot;dictLink&quot;&gt;participations&lt;/a&gt;&lt;/span&gt;" style="shape=rhombus;perimeter=rhombusPerimeter;whiteSpace=wrap;html=1;align=center;" parent="1" vertex="1">
          <mxGeometry x="180" y="250" width="120" height="60" as="geometry" />
        </mxCell>
        <mxCell id="fEHornG4ekqKrcdhMLwt-27" value="nationality" style="ellipse;whiteSpace=wrap;html=1;align=center;" parent="1" vertex="1">
          <mxGeometry x="511" y="300" width="100" height="40" as="geometry" />
        </mxCell>
        <mxCell id="fEHornG4ekqKrcdhMLwt-28" value="nationality" style="ellipse;whiteSpace=wrap;html=1;align=center;" parent="1" vertex="1">
          <mxGeometry x="351" y="20" width="100" height="40" as="geometry" />
        </mxCell>
        <mxCell id="fEHornG4ekqKrcdhMLwt-30" value="name" style="ellipse;whiteSpace=wrap;html=1;align=center;" parent="1" vertex="1">
          <mxGeometry x="511" y="220" width="100" height="40" as="geometry" />
        </mxCell>
        <mxCell id="fEHornG4ekqKrcdhMLwt-31" style="rounded=0;orthogonalLoop=1;jettySize=auto;html=1;endArrow=none;endFill=0;" parent="1" source="fEHornG4ekqKrcdhMLwt-32" target="fEHornG4ekqKrcdhMLwt-26" edge="1">
          <mxGeometry relative="1" as="geometry" />
        </mxCell>
        <mxCell id="fEHornG4ekqKrcdhMLwt-32" value="position" style="ellipse;whiteSpace=wrap;html=1;align=center;" parent="1" vertex="1">
          <mxGeometry x="30" y="180" width="100" height="40" as="geometry" />
        </mxCell>
        <mxCell id="fEHornG4ekqKrcdhMLwt-33" value="id" style="ellipse;whiteSpace=wrap;html=1;align=center;fontStyle=4" parent="1" vertex="1">
          <mxGeometry x="511" y="140" width="100" height="40" as="geometry" />
        </mxCell>
        <mxCell id="fEHornG4ekqKrcdhMLwt-34" value="date" style="ellipse;whiteSpace=wrap;html=1;align=center;" parent="1" vertex="1">
          <mxGeometry x="351" y="500" width="100" height="40" as="geometry" />
        </mxCell>
        <mxCell id="fEHornG4ekqKrcdhMLwt-35" value="id" style="ellipse;whiteSpace=wrap;html=1;align=center;fontStyle=4" parent="1" vertex="1">
          <mxGeometry x="30" y="500" width="100" height="40" as="geometry" />
        </mxCell>
        <mxCell id="fEHornG4ekqKrcdhMLwt-36" value="id" style="ellipse;whiteSpace=wrap;html=1;align=center;fontStyle=4" parent="1" vertex="1">
          <mxGeometry x="30" y="100" width="100" height="40" as="geometry" />
        </mxCell>
        <mxCell id="fEHornG4ekqKrcdhMLwt-37" value="name" style="ellipse;whiteSpace=wrap;html=1;align=center;" parent="1" vertex="1">
          <mxGeometry x="30" y="20" width="100" height="40" as="geometry" />
        </mxCell>
        <mxCell id="fEHornG4ekqKrcdhMLwt-38" value="name" style="ellipse;whiteSpace=wrap;html=1;align=center;" parent="1" vertex="1">
          <mxGeometry x="190" y="500" width="100" height="40" as="geometry" />
        </mxCell>
        <mxCell id="fEHornG4ekqKrcdhMLwt-39" style="rounded=0;orthogonalLoop=1;jettySize=auto;html=1;endArrow=none;endFill=0;" parent="1" source="fEHornG4ekqKrcdhMLwt-26" target="fEHornG4ekqKrcdhMLwt-40" edge="1">
          <mxGeometry relative="1" as="geometry">
            <mxPoint x="205" y="228" as="sourcePoint" />
            <mxPoint x="152.05570094846553" y="193.3304476180174" as="targetPoint" />
          </mxGeometry>
        </mxCell>
        <mxCell id="fEHornG4ekqKrcdhMLwt-40" value="uncertainty" style="ellipse;whiteSpace=wrap;html=1;align=center;dashed=1;dashPattern=8 8;" parent="1" vertex="1">
          <mxGeometry x="30" y="340" width="100" height="40" as="geometry" />
        </mxCell>
        <mxCell id="fEHornG4ekqKrcdhMLwt-41" value="driver points" style="ellipse;whiteSpace=wrap;html=1;align=center;dashed=1;dashPattern=8 8;" parent="1" vertex="1">
          <mxGeometry x="30" y="260" width="100" height="40" as="geometry" />
        </mxCell>
        <mxCell id="fEHornG4ekqKrcdhMLwt-42" style="rounded=0;orthogonalLoop=1;jettySize=auto;html=1;endArrow=none;endFill=0;" parent="1" source="fEHornG4ekqKrcdhMLwt-26" target="fEHornG4ekqKrcdhMLwt-41" edge="1">
          <mxGeometry relative="1" as="geometry">
            <mxPoint x="216" y="237" as="sourcePoint" />
            <mxPoint x="117" y="253" as="targetPoint" />
          </mxGeometry>
        </mxCell>
        <mxCell id="fEHornG4ekqKrcdhMLwt-45" style="rounded=0;orthogonalLoop=1;jettySize=auto;html=1;endArrow=none;endFill=0;" parent="1" source="fEHornG4ekqKrcdhMLwt-26" target="fEHornG4ekqKrcdhMLwt-12" edge="1">
          <mxGeometry relative="1" as="geometry">
            <mxPoint x="280" y="275.2857142857142" as="sourcePoint" />
            <mxPoint x="381" y="225.28571428571422" as="targetPoint" />
          </mxGeometry>
        </mxCell>
        <mxCell id="fEHornG4ekqKrcdhMLwt-46" value="1" style="edgeLabel;html=1;align=center;verticalAlign=middle;resizable=0;points=[];" parent="fEHornG4ekqKrcdhMLwt-45" vertex="1" connectable="0">
          <mxGeometry x="-0.8047" relative="1" as="geometry">
            <mxPoint x="-4" y="-9" as="offset" />
          </mxGeometry>
        </mxCell>
        <mxCell id="fEHornG4ekqKrcdhMLwt-47" value="1" style="edgeLabel;html=1;align=center;verticalAlign=middle;resizable=0;points=[];" parent="fEHornG4ekqKrcdhMLwt-45" vertex="1" connectable="0">
          <mxGeometry x="-0.1373" relative="1" as="geometry">
            <mxPoint x="18" y="-10" as="offset" />
          </mxGeometry>
        </mxCell>
        <mxCell id="fEHornG4ekqKrcdhMLwt-48" value="surname" style="ellipse;whiteSpace=wrap;html=1;align=center;" parent="1" vertex="1">
          <mxGeometry x="190" y="20" width="100" height="40" as="geometry" />
        </mxCell>
        <mxCell id="fEHornG4ekqKrcdhMLwt-49" style="rounded=0;orthogonalLoop=1;jettySize=auto;html=1;endArrow=none;endFill=0;" parent="1" source="fEHornG4ekqKrcdhMLwt-19" target="fEHornG4ekqKrcdhMLwt-48" edge="1">
          <mxGeometry relative="1" as="geometry">
            <mxPoint x="210" y="110" as="sourcePoint" />
            <mxPoint x="121" y="66" as="targetPoint" />
          </mxGeometry>
        </mxCell>
        <mxCell id="5Y38snYqJypTZUUjthkC-1" value="status" style="ellipse;whiteSpace=wrap;html=1;align=center;" vertex="1" parent="1">
          <mxGeometry x="351" y="100" width="100" height="40" as="geometry" />
        </mxCell>
        <mxCell id="5Y38snYqJypTZUUjthkC-3" style="rounded=0;orthogonalLoop=1;jettySize=auto;html=1;endArrow=none;endFill=0;" edge="1" parent="1" source="fEHornG4ekqKrcdhMLwt-19" target="5Y38snYqJypTZUUjthkC-1">
          <mxGeometry relative="1" as="geometry">
            <mxPoint x="290" y="110" as="sourcePoint" />
            <mxPoint x="380" y="66" as="targetPoint" />
          </mxGeometry>
        </mxCell>
        <mxCell id="5Y38snYqJypTZUUjthkC-4" value="status" style="ellipse;whiteSpace=wrap;html=1;align=center;" vertex="1" parent="1">
          <mxGeometry x="511" y="380" width="100" height="40" as="geometry" />
        </mxCell>
        <mxCell id="5Y38snYqJypTZUUjthkC-5" style="rounded=0;orthogonalLoop=1;jettySize=auto;html=1;endArrow=none;endFill=0;" edge="1" parent="1" source="fEHornG4ekqKrcdhMLwt-12" target="5Y38snYqJypTZUUjthkC-4">
          <mxGeometry relative="1" as="geometry">
            <mxPoint x="461" y="303" as="sourcePoint" />
            <mxPoint x="529" y="319" as="targetPoint" />
          </mxGeometry>
        </mxCell>
      </root>
    </mxGraphModel>
  </diagram>
  <diagram id="KuCC717gutsvbgyUtLt0" name="PÃ¡gina-2">
    <mxGraphModel dx="1674" dy="746" grid="1" gridSize="10" guides="1" tooltips="1" connect="1" arrows="1" fold="1" page="1" pageScale="1" pageWidth="827" pageHeight="1169" math="0" shadow="0">
      <root>
        <mxCell id="0" />
        <mxCell id="1" parent="0" />
        <mxCell id="SVllH9l_F9v9vqGUW8PD-1" style="rounded=0;orthogonalLoop=1;jettySize=auto;html=1;endArrow=none;endFill=0;" parent="1" source="SVllH9l_F9v9vqGUW8PD-5" target="SVllH9l_F9v9vqGUW8PD-26" edge="1">
          <mxGeometry relative="1" as="geometry" />
        </mxCell>
        <mxCell id="SVllH9l_F9v9vqGUW8PD-2" style="rounded=0;orthogonalLoop=1;jettySize=auto;html=1;endArrow=none;endFill=0;" parent="1" source="SVllH9l_F9v9vqGUW8PD-5" target="SVllH9l_F9v9vqGUW8PD-23" edge="1">
          <mxGeometry relative="1" as="geometry" />
        </mxCell>
        <mxCell id="SVllH9l_F9v9vqGUW8PD-4" style="rounded=0;orthogonalLoop=1;jettySize=auto;html=1;endArrow=none;endFill=0;" parent="1" source="SVllH9l_F9v9vqGUW8PD-5" target="SVllH9l_F9v9vqGUW8PD-20" edge="1">
          <mxGeometry relative="1" as="geometry" />
        </mxCell>
        <mxCell id="SVllH9l_F9v9vqGUW8PD-5" value="ESCUDERIAS" style="whiteSpace=wrap;html=1;align=center;" parent="1" vertex="1">
          <mxGeometry x="351" y="260" width="100" height="40" as="geometry" />
        </mxCell>
        <mxCell id="SVllH9l_F9v9vqGUW8PD-6" value="N" style="rounded=0;orthogonalLoop=1;jettySize=auto;html=1;endArrow=none;endFill=0;" parent="1" source="SVllH9l_F9v9vqGUW8PD-12" target="SVllH9l_F9v9vqGUW8PD-19" edge="1">
          <mxGeometry x="0.8182" y="-10" relative="1" as="geometry">
            <mxPoint as="offset" />
          </mxGeometry>
        </mxCell>
        <mxCell id="SVllH9l_F9v9vqGUW8PD-7" value="1" style="edgeLabel;html=1;align=center;verticalAlign=middle;resizable=0;points=[];" parent="SVllH9l_F9v9vqGUW8PD-6" vertex="1" connectable="0">
          <mxGeometry x="-0.7273" y="-1" relative="1" as="geometry">
            <mxPoint x="-9" y="-5" as="offset" />
          </mxGeometry>
        </mxCell>
        <mxCell id="SVllH9l_F9v9vqGUW8PD-8" value="(N 1 N)" style="edgeLabel;html=1;align=center;verticalAlign=middle;resizable=0;points=[];" parent="SVllH9l_F9v9vqGUW8PD-6" vertex="1" connectable="0">
          <mxGeometry x="0.6182" y="-2" relative="1" as="geometry">
            <mxPoint x="42" y="21" as="offset" />
          </mxGeometry>
        </mxCell>
        <mxCell id="SVllH9l_F9v9vqGUW8PD-9" style="rounded=0;orthogonalLoop=1;jettySize=auto;html=1;endArrow=none;endFill=0;" parent="1" source="SVllH9l_F9v9vqGUW8PD-12" target="SVllH9l_F9v9vqGUW8PD-29" edge="1">
          <mxGeometry relative="1" as="geometry" />
        </mxCell>
        <mxCell id="SVllH9l_F9v9vqGUW8PD-10" style="rounded=0;orthogonalLoop=1;jettySize=auto;html=1;endArrow=none;endFill=0;" parent="1" source="SVllH9l_F9v9vqGUW8PD-12" target="SVllH9l_F9v9vqGUW8PD-30" edge="1">
          <mxGeometry relative="1" as="geometry" />
        </mxCell>
        <mxCell id="SVllH9l_F9v9vqGUW8PD-11" style="rounded=0;orthogonalLoop=1;jettySize=auto;html=1;endArrow=none;endFill=0;" parent="1" source="SVllH9l_F9v9vqGUW8PD-12" target="SVllH9l_F9v9vqGUW8PD-21" edge="1">
          <mxGeometry relative="1" as="geometry" />
        </mxCell>
        <mxCell id="SVllH9l_F9v9vqGUW8PD-12" value="PILOTOS" style="whiteSpace=wrap;html=1;align=center;" parent="1" vertex="1">
          <mxGeometry x="190" y="100" width="100" height="40" as="geometry" />
        </mxCell>
        <mxCell id="SVllH9l_F9v9vqGUW8PD-13" style="rounded=0;orthogonalLoop=1;jettySize=auto;html=1;endArrow=none;endFill=0;" parent="1" source="SVllH9l_F9v9vqGUW8PD-18" target="SVllH9l_F9v9vqGUW8PD-31" edge="1">
          <mxGeometry relative="1" as="geometry" />
        </mxCell>
        <mxCell id="SVllH9l_F9v9vqGUW8PD-14" style="rounded=0;orthogonalLoop=1;jettySize=auto;html=1;endArrow=none;endFill=0;" parent="1" source="SVllH9l_F9v9vqGUW8PD-18" target="SVllH9l_F9v9vqGUW8PD-28" edge="1">
          <mxGeometry relative="1" as="geometry" />
        </mxCell>
        <mxCell id="SVllH9l_F9v9vqGUW8PD-15" style="rounded=0;orthogonalLoop=1;jettySize=auto;html=1;endArrow=none;endFill=0;" parent="1" source="SVllH9l_F9v9vqGUW8PD-18" target="SVllH9l_F9v9vqGUW8PD-27" edge="1">
          <mxGeometry relative="1" as="geometry" />
        </mxCell>
        <mxCell id="SVllH9l_F9v9vqGUW8PD-16" value="N" style="rounded=0;orthogonalLoop=1;jettySize=auto;html=1;endArrow=none;endFill=0;" parent="1" source="SVllH9l_F9v9vqGUW8PD-18" target="SVllH9l_F9v9vqGUW8PD-19" edge="1">
          <mxGeometry x="0.8182" y="10" relative="1" as="geometry">
            <mxPoint as="offset" />
          </mxGeometry>
        </mxCell>
        <mxCell id="SVllH9l_F9v9vqGUW8PD-17" value="&lt;div&gt;1&lt;/div&gt;" style="edgeLabel;html=1;align=center;verticalAlign=middle;resizable=0;points=[];" parent="SVllH9l_F9v9vqGUW8PD-16" vertex="1" connectable="0">
          <mxGeometry x="-0.6545" y="1" relative="1" as="geometry">
            <mxPoint x="-9" y="9" as="offset" />
          </mxGeometry>
        </mxCell>
        <mxCell id="SVllH9l_F9v9vqGUW8PD-18" value="CARRERAS" style="whiteSpace=wrap;html=1;align=center;" parent="1" vertex="1">
          <mxGeometry x="190" y="420" width="100" height="40" as="geometry" />
        </mxCell>
        <mxCell id="SVllH9l_F9v9vqGUW8PD-19" value="participaciones" style="shape=rhombus;perimeter=rhombusPerimeter;whiteSpace=wrap;html=1;align=center;" parent="1" vertex="1">
          <mxGeometry x="180" y="250" width="120" height="60" as="geometry" />
        </mxCell>
        <mxCell id="SVllH9l_F9v9vqGUW8PD-20" value="nacionalidad" style="ellipse;whiteSpace=wrap;html=1;align=center;" parent="1" vertex="1">
          <mxGeometry x="511" y="300" width="100" height="40" as="geometry" />
        </mxCell>
        <mxCell id="SVllH9l_F9v9vqGUW8PD-21" value="nacionalidad" style="ellipse;whiteSpace=wrap;html=1;align=center;" parent="1" vertex="1">
          <mxGeometry x="351" y="20" width="100" height="40" as="geometry" />
        </mxCell>
        <mxCell id="SVllH9l_F9v9vqGUW8PD-23" value="nombre" style="ellipse;whiteSpace=wrap;html=1;align=center;" parent="1" vertex="1">
          <mxGeometry x="511" y="220" width="100" height="40" as="geometry" />
        </mxCell>
        <mxCell id="SVllH9l_F9v9vqGUW8PD-24" style="rounded=0;orthogonalLoop=1;jettySize=auto;html=1;endArrow=none;endFill=0;" parent="1" source="SVllH9l_F9v9vqGUW8PD-25" target="SVllH9l_F9v9vqGUW8PD-19" edge="1">
          <mxGeometry relative="1" as="geometry" />
        </mxCell>
        <mxCell id="SVllH9l_F9v9vqGUW8PD-25" value="posiciÃ³n" style="ellipse;whiteSpace=wrap;html=1;align=center;" parent="1" vertex="1">
          <mxGeometry x="30" y="180" width="100" height="40" as="geometry" />
        </mxCell>
        <mxCell id="SVllH9l_F9v9vqGUW8PD-26" value="id" style="ellipse;whiteSpace=wrap;html=1;align=center;fontStyle=4" parent="1" vertex="1">
          <mxGeometry x="511" y="140" width="100" height="40" as="geometry" />
        </mxCell>
        <mxCell id="SVllH9l_F9v9vqGUW8PD-27" value="fecha" style="ellipse;whiteSpace=wrap;html=1;align=center;" parent="1" vertex="1">
          <mxGeometry x="351" y="500" width="100" height="40" as="geometry" />
        </mxCell>
        <mxCell id="SVllH9l_F9v9vqGUW8PD-28" value="id" style="ellipse;whiteSpace=wrap;html=1;align=center;fontStyle=4" parent="1" vertex="1">
          <mxGeometry x="30" y="500" width="100" height="40" as="geometry" />
        </mxCell>
        <mxCell id="SVllH9l_F9v9vqGUW8PD-29" value="id" style="ellipse;whiteSpace=wrap;html=1;align=center;fontStyle=4" parent="1" vertex="1">
          <mxGeometry x="30" y="100" width="100" height="40" as="geometry" />
        </mxCell>
        <mxCell id="SVllH9l_F9v9vqGUW8PD-30" value="nombre" style="ellipse;whiteSpace=wrap;html=1;align=center;" parent="1" vertex="1">
          <mxGeometry x="30" y="20" width="100" height="40" as="geometry" />
        </mxCell>
        <mxCell id="SVllH9l_F9v9vqGUW8PD-31" value="nombre" style="ellipse;whiteSpace=wrap;html=1;align=center;" parent="1" vertex="1">
          <mxGeometry x="190" y="500" width="100" height="40" as="geometry" />
        </mxCell>
        <mxCell id="SVllH9l_F9v9vqGUW8PD-32" style="rounded=0;orthogonalLoop=1;jettySize=auto;html=1;endArrow=none;endFill=0;" parent="1" source="SVllH9l_F9v9vqGUW8PD-19" target="SVllH9l_F9v9vqGUW8PD-33" edge="1">
          <mxGeometry relative="1" as="geometry">
            <mxPoint x="205" y="228" as="sourcePoint" />
            <mxPoint x="152.05570094846553" y="193.3304476180174" as="targetPoint" />
          </mxGeometry>
        </mxCell>
        <mxCell id="SVllH9l_F9v9vqGUW8PD-33" value="&lt;span&gt;&lt;span data-dobid=&quot;hdw&quot;&gt;incertidumbre&lt;/span&gt;&lt;/span&gt;" style="ellipse;whiteSpace=wrap;html=1;align=center;dashed=1;dashPattern=8 8;" parent="1" vertex="1">
          <mxGeometry x="30" y="340" width="100" height="40" as="geometry" />
        </mxCell>
        <mxCell id="SVllH9l_F9v9vqGUW8PD-34" value="puntos del piloto" style="ellipse;whiteSpace=wrap;html=1;align=center;dashed=1;dashPattern=8 8;" parent="1" vertex="1">
          <mxGeometry x="30" y="260" width="100" height="40" as="geometry" />
        </mxCell>
        <mxCell id="SVllH9l_F9v9vqGUW8PD-35" style="rounded=0;orthogonalLoop=1;jettySize=auto;html=1;endArrow=none;endFill=0;" parent="1" source="SVllH9l_F9v9vqGUW8PD-19" target="SVllH9l_F9v9vqGUW8PD-34" edge="1">
          <mxGeometry relative="1" as="geometry">
            <mxPoint x="216" y="237" as="sourcePoint" />
            <mxPoint x="117" y="253" as="targetPoint" />
          </mxGeometry>
        </mxCell>
        <mxCell id="SVllH9l_F9v9vqGUW8PD-38" style="rounded=0;orthogonalLoop=1;jettySize=auto;html=1;endArrow=none;endFill=0;" parent="1" source="SVllH9l_F9v9vqGUW8PD-19" target="SVllH9l_F9v9vqGUW8PD-5" edge="1">
          <mxGeometry relative="1" as="geometry">
            <mxPoint x="280" y="275.2857142857142" as="sourcePoint" />
            <mxPoint x="381" y="225.28571428571422" as="targetPoint" />
          </mxGeometry>
        </mxCell>
        <mxCell id="SVllH9l_F9v9vqGUW8PD-39" value="1" style="edgeLabel;html=1;align=center;verticalAlign=middle;resizable=0;points=[];" parent="SVllH9l_F9v9vqGUW8PD-38" vertex="1" connectable="0">
          <mxGeometry x="-0.8047" relative="1" as="geometry">
            <mxPoint x="-4" y="-9" as="offset" />
          </mxGeometry>
        </mxCell>
        <mxCell id="SVllH9l_F9v9vqGUW8PD-40" value="1" style="edgeLabel;html=1;align=center;verticalAlign=middle;resizable=0;points=[];" parent="SVllH9l_F9v9vqGUW8PD-38" vertex="1" connectable="0">
          <mxGeometry x="-0.1373" relative="1" as="geometry">
            <mxPoint x="18" y="-10" as="offset" />
          </mxGeometry>
        </mxCell>
        <mxCell id="SVllH9l_F9v9vqGUW8PD-41" value="apellido" style="ellipse;whiteSpace=wrap;html=1;align=center;" parent="1" vertex="1">
          <mxGeometry x="190" y="20" width="100" height="40" as="geometry" />
        </mxCell>
        <mxCell id="SVllH9l_F9v9vqGUW8PD-42" style="rounded=0;orthogonalLoop=1;jettySize=auto;html=1;endArrow=none;endFill=0;" parent="1" source="SVllH9l_F9v9vqGUW8PD-12" target="SVllH9l_F9v9vqGUW8PD-41" edge="1">
          <mxGeometry relative="1" as="geometry">
            <mxPoint x="210" y="110" as="sourcePoint" />
            <mxPoint x="121" y="66" as="targetPoint" />
          </mxGeometry>
        </mxCell>
        <mxCell id="aUGMZw7bm0WDv7akOBir-1" value="estado" style="ellipse;whiteSpace=wrap;html=1;align=center;" vertex="1" parent="1">
          <mxGeometry x="351" y="100" width="100" height="40" as="geometry" />
        </mxCell>
        <mxCell id="aUGMZw7bm0WDv7akOBir-2" style="rounded=0;orthogonalLoop=1;jettySize=auto;html=1;endArrow=none;endFill=0;" edge="1" parent="1" target="aUGMZw7bm0WDv7akOBir-1" source="SVllH9l_F9v9vqGUW8PD-12">
          <mxGeometry relative="1" as="geometry">
            <mxPoint x="290" y="120" as="sourcePoint" />
            <mxPoint x="380" y="66" as="targetPoint" />
          </mxGeometry>
        </mxCell>
        <mxCell id="aUGMZw7bm0WDv7akOBir-3" value="estado" style="ellipse;whiteSpace=wrap;html=1;align=center;" vertex="1" parent="1">
          <mxGeometry x="511" y="380" width="100" height="40" as="geometry" />
        </mxCell>
        <mxCell id="aUGMZw7bm0WDv7akOBir-4" style="rounded=0;orthogonalLoop=1;jettySize=auto;html=1;endArrow=none;endFill=0;" edge="1" parent="1" target="aUGMZw7bm0WDv7akOBir-3" source="SVllH9l_F9v9vqGUW8PD-5">
          <mxGeometry relative="1" as="geometry">
            <mxPoint x="428" y="300" as="sourcePoint" />
            <mxPoint x="529" y="319" as="targetPoint" />
          </mxGeometry>
        </mxCell>
      </root>
    </mxGraphModel>
  </diagram>
</mxfile>
